<?xml version="1.0" encoding="UTF-8" standalone="no"?>
<!DOCTYPE svg PUBLIC "-//W3C//DTD SVG 1.1//EN"
 "http://www.w3.org/Graphics/SVG/1.1/DTD/svg11.dtd">
<!-- Generated by graphviz version 2.36.0 (20140111.2315)
 -->
<!-- Title: G Pages: 1 -->
<svg width="672pt" height="476pt"
 viewBox="0.00 0.00 672.00 476.00" xmlns="http://www.w3.org/2000/svg" xmlns:xlink="http://www.w3.org/1999/xlink">
<g id="graph0" class="graph" transform="scale(1 1) rotate(0) translate(4 472)">
<title>G</title>
<polygon fill="white" stroke="none" points="-4,4 -4,-472 668,-472 668,4 -4,4"/>
<!-- CompoundFileError -->
<g id="node1" class="node"><title>CompoundFileError</title>
<polygon fill="#99aadd" stroke="#000000" points="574,-198 454,-198 454,-162 574,-162 574,-198"/>
<text text-anchor="middle" x="514" y="-176.9" font-family="Arial" font-size="12.00">CompoundFileError</text>
</g>
<!-- IOError -->
<g id="node2" class="node"><title>IOError</title>
<polygon fill="#99aadd" stroke="#000000" points="664,-198 610,-198 610,-162 664,-162 664,-198"/>
<text text-anchor="middle" x="637" y="-176.9" font-family="Arial" font-size="12.00">IOError</text>
</g>
<!-- CompoundFileError&#45;&gt;IOError -->
<g id="edge1" class="edge"><title>CompoundFileError&#45;&gt;IOError</title>
<path fill="none" stroke="black" d="M574.082,-180C582.842,-180 591.641,-180 599.745,-180"/>
<polygon fill="black" stroke="black" points="599.936,-183.5 609.936,-180 599.936,-176.5 599.936,-183.5"/>
</g>
<!-- CompoundFileHeaderError -->
<g id="node3" class="node"><title>CompoundFileHeaderError</title>
<polygon fill="#99aadd" stroke="#000000" points="409.5,-414 250.5,-414 250.5,-378 409.5,-378 409.5,-414"/>
<text text-anchor="middle" x="330" y="-392.9" font-family="Arial" font-size="12.00">CompoundFileHeaderError</text>
</g>
<!-- CompoundFileHeaderError&#45;&gt;CompoundFileError -->
<g id="edge2" class="edge"><title>CompoundFileHeaderError&#45;&gt;CompoundFileError</title>
<path fill="none" stroke="black" d="M368.548,-377.98C385.051,-368.804 403.851,-356.509 418,-342 457.261,-301.74 486.741,-242.195 501.798,-207.625"/>
<polygon fill="black" stroke="black" points="505.131,-208.732 505.831,-198.161 498.691,-205.988 505.131,-208.732"/>
</g>
<!-- CompoundFileMasterFatError -->
<g id="node4" class="node"><title>CompoundFileMasterFatError</title>
<polygon fill="#99aadd" stroke="#000000" points="416.5,-333 243.5,-333 243.5,-297 416.5,-297 416.5,-333"/>
<text text-anchor="middle" x="330" y="-311.9" font-family="Arial" font-size="12.00">CompoundFileMasterFatError</text>
</g>
<!-- CompoundFileMasterFatError&#45;&gt;CompoundFileError -->
<g id="edge3" class="edge"><title>CompoundFileMasterFatError&#45;&gt;CompoundFileError</title>
<path fill="none" stroke="black" d="M362.749,-296.861C379.568,-286.865 400.342,-273.896 418,-261 441.893,-243.552 467.315,-221.682 485.843,-205.066"/>
<polygon fill="black" stroke="black" points="488.264,-207.596 493.337,-198.295 483.571,-202.402 488.264,-207.596"/>
</g>
<!-- CompoundFileNormalFatError -->
<g id="node5" class="node"><title>CompoundFileNormalFatError</title>
<polygon fill="#99aadd" stroke="#000000" points="417.5,-252 242.5,-252 242.5,-216 417.5,-216 417.5,-252"/>
<text text-anchor="middle" x="330" y="-230.9" font-family="Arial" font-size="12.00">CompoundFileNormalFatError</text>
</g>
<!-- CompoundFileNormalFatError&#45;&gt;CompoundFileError -->
<g id="edge4" class="edge"><title>CompoundFileNormalFatError&#45;&gt;CompoundFileError</title>
<path fill="none" stroke="black" d="M391.856,-215.944C408.528,-210.997 426.722,-205.599 443.823,-200.525"/>
<polygon fill="black" stroke="black" points="445.155,-203.781 453.746,-197.581 443.164,-197.07 445.155,-203.781"/>
</g>
<!-- CompoundFileMiniFatError -->
<g id="node6" class="node"><title>CompoundFileMiniFatError</title>
<polygon fill="#99aadd" stroke="#000000" points="409.5,-198 250.5,-198 250.5,-162 409.5,-162 409.5,-198"/>
<text text-anchor="middle" x="330" y="-176.9" font-family="Arial" font-size="12.00">CompoundFileMiniFatError</text>
</g>
<!-- CompoundFileMiniFatError&#45;&gt;CompoundFileError -->
<g id="edge5" class="edge"><title>CompoundFileMiniFatError&#45;&gt;CompoundFileError</title>
<path fill="none" stroke="black" d="M409.505,-180C420.922,-180 432.607,-180 443.821,-180"/>
<polygon fill="black" stroke="black" points="443.967,-183.5 453.967,-180 443.967,-176.5 443.967,-183.5"/>
</g>
<!-- CompoundFileDirEntryError -->
<g id="node7" class="node"><title>CompoundFileDirEntryError</title>
<polygon fill="#99aadd" stroke="#000000" points="411,-144 249,-144 249,-108 411,-108 411,-144"/>
<text text-anchor="middle" x="330" y="-122.9" font-family="Arial" font-size="12.00">CompoundFileDirEntryError</text>
</g>
<!-- CompoundFileDirEntryError&#45;&gt;CompoundFileError -->
<g id="edge6" class="edge"><title>CompoundFileDirEntryError&#45;&gt;CompoundFileError</title>
<path fill="none" stroke="black" d="M391.856,-144.056C408.528,-149.003 426.722,-154.401 443.823,-159.475"/>
<polygon fill="black" stroke="black" points="443.164,-162.93 453.746,-162.419 445.155,-156.219 443.164,-162.93"/>
</g>
<!-- CompoundFileInvalidMagicError -->
<g id="node8" class="node"><title>CompoundFileInvalidMagicError</title>
<polygon fill="#99aadd" stroke="#000000" points="195.5,-468 10.5,-468 10.5,-432 195.5,-432 195.5,-468"/>
<text text-anchor="middle" x="103" y="-446.9" font-family="Arial" font-size="12.00">CompoundFileInvalidMagicError</text>
</g>
<!-- CompoundFileInvalidMagicError&#45;&gt;CompoundFileHeaderError -->
<g id="edge7" class="edge"><title>CompoundFileInvalidMagicError&#45;&gt;CompoundFileHeaderError</title>
<path fill="none" stroke="black" d="M179.235,-431.944C199.968,-426.968 222.606,-421.535 243.857,-416.434"/>
<polygon fill="black" stroke="black" points="244.929,-419.776 253.836,-414.039 243.296,-412.97 244.929,-419.776"/>
</g>
<!-- CompoundFileInvalidBomError -->
<g id="node9" class="node"><title>CompoundFileInvalidBomError</title>
<polygon fill="#99aadd" stroke="#000000" points="191.5,-414 14.5,-414 14.5,-378 191.5,-378 191.5,-414"/>
<text text-anchor="middle" x="103" y="-392.9" font-family="Arial" font-size="12.00">CompoundFileInvalidBomError</text>
</g>
<!-- CompoundFileInvalidBomError&#45;&gt;CompoundFileHeaderError -->
<g id="edge8" class="edge"><title>CompoundFileInvalidBomError&#45;&gt;CompoundFileHeaderError</title>
<path fill="none" stroke="black" d="M191.635,-396C207.527,-396 224.115,-396 240.044,-396"/>
<polygon fill="black" stroke="black" points="240.402,-399.5 250.402,-396 240.402,-392.5 240.402,-399.5"/>
</g>
<!-- CompoundFileLargeNormalFatError -->
<g id="node10" class="node"><title>CompoundFileLargeNormalFatError</title>
<polygon fill="#99aadd" stroke="#000000" points="206,-306 0,-306 0,-270 206,-270 206,-306"/>
<text text-anchor="middle" x="103" y="-284.9" font-family="Arial" font-size="12.00">CompoundFileLargeNormalFatError</text>
</g>
<!-- CompoundFileLargeNormalFatError&#45;&gt;CompoundFileNormalFatError -->
<g id="edge9" class="edge"><title>CompoundFileLargeNormalFatError&#45;&gt;CompoundFileNormalFatError</title>
<path fill="none" stroke="black" d="M179.235,-269.944C199.968,-264.968 222.606,-259.535 243.857,-254.434"/>
<polygon fill="black" stroke="black" points="244.929,-257.776 253.836,-252.039 243.296,-250.97 244.929,-257.776"/>
</g>
<!-- CompoundFileNormalLoopError -->
<g id="node11" class="node"><title>CompoundFileNormalLoopError</title>
<polygon fill="#99aadd" stroke="#000000" points="195.5,-252 10.5,-252 10.5,-216 195.5,-216 195.5,-252"/>
<text text-anchor="middle" x="103" y="-230.9" font-family="Arial" font-size="12.00">CompoundFileNormalLoopError</text>
</g>
<!-- CompoundFileNormalLoopError&#45;&gt;CompoundFileNormalFatError -->
<g id="edge10" class="edge"><title>CompoundFileNormalLoopError&#45;&gt;CompoundFileNormalFatError</title>
<path fill="none" stroke="black" d="M195.516,-234C207.588,-234 219.993,-234 232.15,-234"/>
<polygon fill="black" stroke="black" points="232.291,-237.5 242.291,-234 232.291,-230.5 232.291,-237.5"/>
</g>
<!-- CompoundFileLargeMiniFatError -->
<g id="node12" class="node"><title>CompoundFileLargeMiniFatError</title>
<polygon fill="#99aadd" stroke="#000000" points="198,-198 8,-198 8,-162 198,-162 198,-198"/>
<text text-anchor="middle" x="103" y="-176.9" font-family="Arial" font-size="12.00">CompoundFileLargeMiniFatError</text>
</g>
<!-- CompoundFileLargeMiniFatError&#45;&gt;CompoundFileMiniFatError -->
<g id="edge11" class="edge"><title>CompoundFileLargeMiniFatError&#45;&gt;CompoundFileMiniFatError</title>
<path fill="none" stroke="black" d="M198.117,-180C211.935,-180 226.134,-180 239.848,-180"/>
<polygon fill="black" stroke="black" points="240.227,-183.5 250.227,-180 240.227,-176.5 240.227,-183.5"/>
</g>
<!-- CompoundFileNoMiniFatError -->
<g id="node13" class="node"><title>CompoundFileNoMiniFatError</title>
<polygon fill="#99aadd" stroke="#000000" points="190,-144 16,-144 16,-108 190,-108 190,-144"/>
<text text-anchor="middle" x="103" y="-122.9" font-family="Arial" font-size="12.00">CompoundFileNoMiniFatError</text>
</g>
<!-- CompoundFileNoMiniFatError&#45;&gt;CompoundFileMiniFatError -->
<g id="edge12" class="edge"><title>CompoundFileNoMiniFatError&#45;&gt;CompoundFileMiniFatError</title>
<path fill="none" stroke="black" d="M179.235,-144.056C199.968,-149.032 222.606,-154.465 243.857,-159.566"/>
<polygon fill="black" stroke="black" points="243.296,-163.03 253.836,-161.961 244.929,-156.224 243.296,-163.03"/>
</g>
<!-- CompoundFileMasterLoopError -->
<g id="node14" class="node"><title>CompoundFileMasterLoopError</title>
<polygon fill="#99aadd" stroke="#000000" points="194.5,-360 11.5,-360 11.5,-324 194.5,-324 194.5,-360"/>
<text text-anchor="middle" x="103" y="-338.9" font-family="Arial" font-size="12.00">CompoundFileMasterLoopError</text>
</g>
<!-- CompoundFileMasterLoopError&#45;&gt;CompoundFileMasterFatError -->
<g id="edge13" class="edge"><title>CompoundFileMasterLoopError&#45;&gt;CompoundFileMasterFatError</title>
<path fill="none" stroke="black" d="M194.544,-331.135C207.262,-329.609 220.371,-328.036 233.184,-326.498"/>
<polygon fill="black" stroke="black" points="233.871,-329.941 243.383,-325.274 233.037,-322.99 233.871,-329.941"/>
</g>
<!-- CompoundFileDirLoopError -->
<g id="node15" class="node"><title>CompoundFileDirLoopError</title>
<polygon fill="#99aadd" stroke="#000000" points="184.5,-90 21.5,-90 21.5,-54 184.5,-54 184.5,-90"/>
<text text-anchor="middle" x="103" y="-68.9" font-family="Arial" font-size="12.00">CompoundFileDirLoopError</text>
</g>
<!-- CompoundFileDirLoopError&#45;&gt;CompoundFileDirEntryError -->
<g id="edge14" class="edge"><title>CompoundFileDirLoopError&#45;&gt;CompoundFileDirEntryError</title>
<path fill="none" stroke="black" d="M179.235,-90.0563C199.968,-95.0324 222.606,-100.465 243.857,-105.566"/>
<polygon fill="black" stroke="black" points="243.296,-109.03 253.836,-107.961 244.929,-102.224 243.296,-109.03"/>
</g>
<!-- CompoundFileNotFoundError -->
<g id="node16" class="node"><title>CompoundFileNotFoundError</title>
<polygon fill="#99aadd" stroke="#000000" points="415.5,-90 244.5,-90 244.5,-54 415.5,-54 415.5,-90"/>
<text text-anchor="middle" x="330" y="-68.9" font-family="Arial" font-size="12.00">CompoundFileNotFoundError</text>
</g>
<!-- CompoundFileNotFoundError&#45;&gt;CompoundFileError -->
<g id="edge15" class="edge"><title>CompoundFileNotFoundError&#45;&gt;CompoundFileError</title>
<path fill="none" stroke="black" d="M399.09,-90.1566C405.633,-92.7785 412.043,-95.719 418,-99 444.745,-113.732 470.823,-136.778 488.869,-154.528"/>
<polygon fill="black" stroke="black" points="486.551,-157.16 496.09,-161.771 491.508,-152.218 486.551,-157.16"/>
</g>
<!-- CompoundFileNotStreamError -->
<g id="node17" class="node"><title>CompoundFileNotStreamError</title>
<polygon fill="#99aadd" stroke="#000000" points="418,-36 242,-36 242,-0 418,-0 418,-36"/>
<text text-anchor="middle" x="330" y="-14.9" font-family="Arial" font-size="12.00">CompoundFileNotStreamError</text>
</g>
<!-- CompoundFileNotStreamError&#45;&gt;CompoundFileError -->
<g id="edge16" class="edge"><title>CompoundFileNotStreamError&#45;&gt;CompoundFileError</title>
<path fill="none" stroke="black" d="M403.124,-36.1245C408.368,-38.7069 413.397,-41.6492 418,-45 456.678,-73.1567 485.309,-121.996 500.549,-152.572"/>
<polygon fill="black" stroke="black" points="497.513,-154.334 505.023,-161.808 503.813,-151.282 497.513,-154.334"/>
</g>
</g>
</svg>
