<?xml version="1.0" encoding="UTF-8" standalone="no"?>
<!DOCTYPE svg PUBLIC "-//W3C//DTD SVG 1.1//EN"
 "http://www.w3.org/Graphics/SVG/1.1/DTD/svg11.dtd">
<!-- Generated by graphviz version 2.36.0 (20140111.2315)
 -->
<!-- Title: G Pages: 1 -->
<svg width="716pt" height="530pt"
 viewBox="0.00 0.00 716.00 530.00" xmlns="http://www.w3.org/2000/svg" xmlns:xlink="http://www.w3.org/1999/xlink">
<g id="graph0" class="graph" transform="scale(1 1) rotate(0) translate(4 526)">
<title>G</title>
<polygon fill="white" stroke="none" points="-4,4 -4,-526 712,-526 712,4 -4,4"/>
<!-- CompoundFileWarning -->
<g id="node1" class="node"><title>CompoundFileWarning</title>
<polygon fill="#99aadd" stroke="#000000" points="611.5,-306 474.5,-306 474.5,-270 611.5,-270 611.5,-306"/>
<text text-anchor="middle" x="543" y="-284.9" font-family="Arial" font-size="12.00">CompoundFileWarning</text>
</g>
<!-- Warning -->
<g id="node2" class="node"><title>Warning</title>
<polygon fill="#99aadd" stroke="#000000" points="708,-306 648,-306 648,-270 708,-270 708,-306"/>
<text text-anchor="middle" x="678" y="-284.9" font-family="Arial" font-size="12.00">Warning</text>
</g>
<!-- CompoundFileWarning&#45;&gt;Warning -->
<g id="edge1" class="edge"><title>CompoundFileWarning&#45;&gt;Warning</title>
<path fill="none" stroke="black" d="M611.669,-288C620.603,-288 629.509,-288 637.741,-288"/>
<polygon fill="black" stroke="black" points="637.76,-291.5 647.76,-288 637.76,-284.5 637.76,-291.5"/>
</g>
<!-- CompoundFileHeaderWarning -->
<g id="node3" class="node"><title>CompoundFileHeaderWarning</title>
<polygon fill="#99aadd" stroke="#000000" points="430,-468 254,-468 254,-432 430,-432 430,-468"/>
<text text-anchor="middle" x="342" y="-446.9" font-family="Arial" font-size="12.00">CompoundFileHeaderWarning</text>
</g>
<!-- CompoundFileHeaderWarning&#45;&gt;CompoundFileWarning -->
<g id="edge2" class="edge"><title>CompoundFileHeaderWarning&#45;&gt;CompoundFileWarning</title>
<path fill="none" stroke="black" d="M422.052,-431.904C427.647,-429.318 433.032,-426.367 438,-423 479.06,-395.171 510.945,-345.891 528.062,-315.192"/>
<polygon fill="black" stroke="black" points="531.191,-316.764 532.894,-306.306 525.042,-313.42 531.191,-316.764"/>
</g>
<!-- CompoundFileMasterFatWarning -->
<g id="node4" class="node"><title>CompoundFileMasterFatWarning</title>
<polygon fill="#99aadd" stroke="#000000" points="437.5,-414 246.5,-414 246.5,-378 437.5,-378 437.5,-414"/>
<text text-anchor="middle" x="342" y="-392.9" font-family="Arial" font-size="12.00">CompoundFileMasterFatWarning</text>
</g>
<!-- CompoundFileMasterFatWarning&#45;&gt;CompoundFileWarning -->
<g id="edge3" class="edge"><title>CompoundFileMasterFatWarning&#45;&gt;CompoundFileWarning</title>
<path fill="none" stroke="black" d="M417.203,-377.955C424.377,-375.311 431.424,-372.335 438,-369 467.011,-354.289 495.866,-330.944 515.796,-313.088"/>
<polygon fill="black" stroke="black" points="518.209,-315.624 523.24,-306.3 513.493,-310.452 518.209,-315.624"/>
</g>
<!-- CompoundFileNormalFatWarning -->
<g id="node5" class="node"><title>CompoundFileNormalFatWarning</title>
<polygon fill="#99aadd" stroke="#000000" points="438,-360 246,-360 246,-324 438,-324 438,-360"/>
<text text-anchor="middle" x="342" y="-338.9" font-family="Arial" font-size="12.00">CompoundFileNormalFatWarning</text>
</g>
<!-- CompoundFileNormalFatWarning&#45;&gt;CompoundFileWarning -->
<g id="edge4" class="edge"><title>CompoundFileNormalFatWarning&#45;&gt;CompoundFileWarning</title>
<path fill="none" stroke="black" d="M409.541,-323.944C427.547,-319.058 447.176,-313.731 465.674,-308.712"/>
<polygon fill="black" stroke="black" points="466.788,-312.036 475.522,-306.039 464.954,-305.28 466.788,-312.036"/>
</g>
<!-- CompoundFileMiniFatWarning -->
<g id="node6" class="node"><title>CompoundFileMiniFatWarning</title>
<polygon fill="#99aadd" stroke="#000000" points="430,-306 254,-306 254,-270 430,-270 430,-306"/>
<text text-anchor="middle" x="342" y="-284.9" font-family="Arial" font-size="12.00">CompoundFileMiniFatWarning</text>
</g>
<!-- CompoundFileMiniFatWarning&#45;&gt;CompoundFileWarning -->
<g id="edge5" class="edge"><title>CompoundFileMiniFatWarning&#45;&gt;CompoundFileWarning</title>
<path fill="none" stroke="black" d="M430.284,-288C441.558,-288 453.044,-288 464.152,-288"/>
<polygon fill="black" stroke="black" points="464.23,-291.5 474.23,-288 464.229,-284.5 464.23,-291.5"/>
</g>
<!-- CompoundFileDirEntryWarning -->
<g id="node7" class="node"><title>CompoundFileDirEntryWarning</title>
<polygon fill="#99aadd" stroke="#000000" points="431.5,-252 252.5,-252 252.5,-216 431.5,-216 431.5,-252"/>
<text text-anchor="middle" x="342" y="-230.9" font-family="Arial" font-size="12.00">CompoundFileDirEntryWarning</text>
</g>
<!-- CompoundFileDirEntryWarning&#45;&gt;CompoundFileWarning -->
<g id="edge6" class="edge"><title>CompoundFileDirEntryWarning&#45;&gt;CompoundFileWarning</title>
<path fill="none" stroke="black" d="M409.541,-252.056C427.547,-256.942 447.176,-262.269 465.674,-267.288"/>
<polygon fill="black" stroke="black" points="464.954,-270.72 475.522,-269.961 466.788,-263.964 464.954,-270.72"/>
</g>
<!-- CompoundFileSectorSizeWarning -->
<g id="node8" class="node"><title>CompoundFileSectorSizeWarning</title>
<polygon fill="#99aadd" stroke="#000000" points="202.5,-522 7.5,-522 7.5,-486 202.5,-486 202.5,-522"/>
<text text-anchor="middle" x="105" y="-500.9" font-family="Arial" font-size="12.00">CompoundFileSectorSizeWarning</text>
</g>
<!-- CompoundFileSectorSizeWarning&#45;&gt;CompoundFileHeaderWarning -->
<g id="edge7" class="edge"><title>CompoundFileSectorSizeWarning&#45;&gt;CompoundFileHeaderWarning</title>
<path fill="none" stroke="black" d="M184.578,-485.944C206.43,-480.923 230.305,-475.436 252.675,-470.296"/>
<polygon fill="black" stroke="black" points="253.534,-473.69 262.496,-468.039 251.966,-466.868 253.534,-473.69"/>
</g>
<!-- CompoundFileVersionWarning -->
<g id="node9" class="node"><title>CompoundFileVersionWarning</title>
<polygon fill="#99aadd" stroke="#000000" points="194,-468 16,-468 16,-432 194,-432 194,-468"/>
<text text-anchor="middle" x="105" y="-446.9" font-family="Arial" font-size="12.00">CompoundFileVersionWarning</text>
</g>
<!-- CompoundFileVersionWarning&#45;&gt;CompoundFileHeaderWarning -->
<g id="edge8" class="edge"><title>CompoundFileVersionWarning&#45;&gt;CompoundFileHeaderWarning</title>
<path fill="none" stroke="black" d="M194.174,-450C210.352,-450 227.322,-450 243.749,-450"/>
<polygon fill="black" stroke="black" points="243.894,-453.5 253.894,-450 243.894,-446.5 243.894,-453.5"/>
</g>
<!-- CompoundFileMasterSectorWarning -->
<g id="node10" class="node"><title>CompoundFileMasterSectorWarning</title>
<polygon fill="#99aadd" stroke="#000000" points="209,-414 1,-414 1,-378 209,-378 209,-414"/>
<text text-anchor="middle" x="105" y="-392.9" font-family="Arial" font-size="12.00">CompoundFileMasterSectorWarning</text>
</g>
<!-- CompoundFileMasterSectorWarning&#45;&gt;CompoundFileNormalFatWarning -->
<g id="edge9" class="edge"><title>CompoundFileMasterSectorWarning&#45;&gt;CompoundFileNormalFatWarning</title>
<path fill="none" stroke="black" d="M184.578,-377.944C206.43,-372.923 230.305,-367.436 252.675,-362.296"/>
<polygon fill="black" stroke="black" points="253.534,-365.69 262.496,-360.039 251.966,-358.868 253.534,-365.69"/>
</g>
<!-- CompoundFileNormalSectorWarning -->
<g id="node11" class="node"><title>CompoundFileNormalSectorWarning</title>
<polygon fill="#99aadd" stroke="#000000" points="209.5,-360 0.5,-360 0.5,-324 209.5,-324 209.5,-360"/>
<text text-anchor="middle" x="105" y="-338.9" font-family="Arial" font-size="12.00">CompoundFileNormalSectorWarning</text>
</g>
<!-- CompoundFileNormalSectorWarning&#45;&gt;CompoundFileNormalFatWarning -->
<g id="edge10" class="edge"><title>CompoundFileNormalSectorWarning&#45;&gt;CompoundFileNormalFatWarning</title>
<path fill="none" stroke="black" d="M209.758,-342C218.419,-342 227.181,-342 235.852,-342"/>
<polygon fill="black" stroke="black" points="235.978,-345.5 245.978,-342 235.977,-338.5 235.978,-345.5"/>
</g>
<!-- CompoundFileDirNameWarning -->
<g id="node12" class="node"><title>CompoundFileDirNameWarning</title>
<polygon fill="#99aadd" stroke="#000000" points="197.5,-306 12.5,-306 12.5,-270 197.5,-270 197.5,-306"/>
<text text-anchor="middle" x="105" y="-284.9" font-family="Arial" font-size="12.00">CompoundFileDirNameWarning</text>
</g>
<!-- CompoundFileDirNameWarning&#45;&gt;CompoundFileDirEntryWarning -->
<g id="edge11" class="edge"><title>CompoundFileDirNameWarning&#45;&gt;CompoundFileDirEntryWarning</title>
<path fill="none" stroke="black" d="M184.578,-269.944C206.43,-264.923 230.305,-259.436 252.675,-254.296"/>
<polygon fill="black" stroke="black" points="253.534,-257.69 262.496,-252.039 251.966,-250.868 253.534,-257.69"/>
</g>
<!-- CompoundFileDirTypeWarning -->
<g id="node13" class="node"><title>CompoundFileDirTypeWarning</title>
<polygon fill="#99aadd" stroke="#000000" points="194.5,-252 15.5,-252 15.5,-216 194.5,-216 194.5,-252"/>
<text text-anchor="middle" x="105" y="-230.9" font-family="Arial" font-size="12.00">CompoundFileDirTypeWarning</text>
</g>
<!-- CompoundFileDirTypeWarning&#45;&gt;CompoundFileDirEntryWarning -->
<g id="edge12" class="edge"><title>CompoundFileDirTypeWarning&#45;&gt;CompoundFileDirEntryWarning</title>
<path fill="none" stroke="black" d="M194.509,-234C209.984,-234 226.176,-234 241.915,-234"/>
<polygon fill="black" stroke="black" points="242.181,-237.5 252.181,-234 242.181,-230.5 242.181,-237.5"/>
</g>
<!-- CompoundFileDirIndexWarning -->
<g id="node14" class="node"><title>CompoundFileDirIndexWarning</title>
<polygon fill="#99aadd" stroke="#000000" points="195,-198 15,-198 15,-162 195,-162 195,-198"/>
<text text-anchor="middle" x="105" y="-176.9" font-family="Arial" font-size="12.00">CompoundFileDirIndexWarning</text>
</g>
<!-- CompoundFileDirIndexWarning&#45;&gt;CompoundFileDirEntryWarning -->
<g id="edge13" class="edge"><title>CompoundFileDirIndexWarning&#45;&gt;CompoundFileDirEntryWarning</title>
<path fill="none" stroke="black" d="M184.578,-198.056C206.43,-203.077 230.305,-208.564 252.675,-213.704"/>
<polygon fill="black" stroke="black" points="251.966,-217.132 262.496,-215.961 253.534,-210.31 251.966,-217.132"/>
</g>
<!-- CompoundFileDirTimeWarning -->
<g id="node15" class="node"><title>CompoundFileDirTimeWarning</title>
<polygon fill="#99aadd" stroke="#000000" points="194.5,-144 15.5,-144 15.5,-108 194.5,-108 194.5,-144"/>
<text text-anchor="middle" x="105" y="-122.9" font-family="Arial" font-size="12.00">CompoundFileDirTimeWarning</text>
</g>
<!-- CompoundFileDirTimeWarning&#45;&gt;CompoundFileDirEntryWarning -->
<g id="edge14" class="edge"><title>CompoundFileDirTimeWarning&#45;&gt;CompoundFileDirEntryWarning</title>
<path fill="none" stroke="black" d="M194.617,-144.015C200.028,-146.616 205.212,-149.593 210,-153 233.503,-169.722 222.69,-190.01 246,-207 247.858,-208.354 249.781,-209.64 251.759,-210.862"/>
<polygon fill="black" stroke="black" points="250.291,-214.05 260.738,-215.817 253.674,-207.921 250.291,-214.05"/>
</g>
<!-- CompoundFileDirSectorWarning -->
<g id="node16" class="node"><title>CompoundFileDirSectorWarning</title>
<polygon fill="#99aadd" stroke="#000000" points="199,-90 11,-90 11,-54 199,-54 199,-90"/>
<text text-anchor="middle" x="105" y="-68.9" font-family="Arial" font-size="12.00">CompoundFileDirSectorWarning</text>
</g>
<!-- CompoundFileDirSectorWarning&#45;&gt;CompoundFileDirEntryWarning -->
<g id="edge15" class="edge"><title>CompoundFileDirSectorWarning&#45;&gt;CompoundFileDirEntryWarning</title>
<path fill="none" stroke="black" d="M198.418,-90.2023C202.56,-92.7713 206.456,-95.6886 210,-99 246.968,-133.545 209.43,-172.034 246,-207 246.976,-207.933 247.982,-208.834 249.015,-209.705"/>
<polygon fill="black" stroke="black" points="247.267,-212.761 257.418,-215.794 251.374,-207.092 247.267,-212.761"/>
</g>
<!-- CompoundFileDirSizeWarning -->
<g id="node17" class="node"><title>CompoundFileDirSizeWarning</title>
<polygon fill="#99aadd" stroke="#000000" points="193,-36 17,-36 17,-0 193,-0 193,-36"/>
<text text-anchor="middle" x="105" y="-14.9" font-family="Arial" font-size="12.00">CompoundFileDirSizeWarning</text>
</g>
<!-- CompoundFileDirSizeWarning&#45;&gt;CompoundFileDirEntryWarning -->
<g id="edge16" class="edge"><title>CompoundFileDirSizeWarning&#45;&gt;CompoundFileDirEntryWarning</title>
<path fill="none" stroke="black" d="M193.096,-32.2966C199.324,-35.7189 205.077,-39.8999 210,-45 261.224,-98.067 195.387,-153.35 246,-207 246.794,-207.842 247.613,-208.658 248.453,-209.449"/>
<polygon fill="black" stroke="black" points="246.572,-212.426 256.574,-215.921 250.935,-206.952 246.572,-212.426"/>
</g>
<!-- CompoundFileTruncatedWarning -->
<g id="node18" class="node"><title>CompoundFileTruncatedWarning</title>
<polygon fill="#99aadd" stroke="#000000" points="436.5,-198 247.5,-198 247.5,-162 436.5,-162 436.5,-198"/>
<text text-anchor="middle" x="342" y="-176.9" font-family="Arial" font-size="12.00">CompoundFileTruncatedWarning</text>
</g>
<!-- CompoundFileTruncatedWarning&#45;&gt;CompoundFileWarning -->
<g id="edge17" class="edge"><title>CompoundFileTruncatedWarning&#45;&gt;CompoundFileWarning</title>
<path fill="none" stroke="black" d="M417.203,-198.045C424.377,-200.689 431.424,-203.665 438,-207 467.011,-221.711 495.866,-245.056 515.796,-262.912"/>
<polygon fill="black" stroke="black" points="513.493,-265.548 523.24,-269.7 518.209,-260.376 513.493,-265.548"/>
</g>
<!-- CompoundFileEmulationWarning -->
<g id="node19" class="node"><title>CompoundFileEmulationWarning</title>
<polygon fill="#99aadd" stroke="#000000" points="436.5,-144 247.5,-144 247.5,-108 436.5,-108 436.5,-144"/>
<text text-anchor="middle" x="342" y="-122.9" font-family="Arial" font-size="12.00">CompoundFileEmulationWarning</text>
</g>
<!-- CompoundFileEmulationWarning&#45;&gt;CompoundFileWarning -->
<g id="edge18" class="edge"><title>CompoundFileEmulationWarning&#45;&gt;CompoundFileWarning</title>
<path fill="none" stroke="black" d="M422.052,-144.096C427.647,-146.682 433.032,-149.633 438,-153 479.06,-180.829 510.945,-230.109 528.062,-260.808"/>
<polygon fill="black" stroke="black" points="525.042,-262.58 532.894,-269.694 531.191,-259.236 525.042,-262.58"/>
</g>
</g>
</svg>
